<?xml version="1.0" encoding="utf-8"?>
<!-- Generator: Adobe Illustrator 27.3.1, SVG Export Plug-In . SVG Version: 6.00 Build 0)  -->
<svg version="1.1" id="Layer_1" xmlns="http://www.w3.org/2000/svg" xmlns:xlink="http://www.w3.org/1999/xlink" x="0px" y="0px"
	 width="180px" height="65.1px" viewBox="0 0 180 65.1" style="enable-background:new 0 0 180 65.1;" xml:space="preserve">
<style type="text/css">
	.st0{fill:#BA5474;}
	.st1{fill:#251163;}
</style>
<g>
	<path class="st0" d="M38.4,61h-8.8V47.8h1.6v11.6h7.1V61z"/>
	<path class="st0" d="M39.2,56.2c0-1.4,0.5-2.6,1.4-3.5c0.9-1,2.1-1.5,3.6-1.5s2.6,0.5,3.6,1.5c1,1,1.4,2.2,1.4,3.5
		s-0.5,2.6-1.4,3.6c-0.9,1-2.1,1.4-3.6,1.4c-1.5,0-2.7-0.5-3.6-1.4C39.7,58.9,39.2,57.7,39.2,56.2L39.2,56.2z M47.6,56.2
		c0-1-0.3-1.8-1-2.5c-0.7-0.7-1.5-1.1-2.4-1.1c-0.9,0-1.7,0.4-2.4,1.1c-0.7,0.7-1,1.5-1,2.5c0,1,0.3,1.8,1,2.5c0.7,0.7,1.5,1,2.4,1
		c1,0,1.8-0.3,2.4-1S47.6,57.2,47.6,56.2z"/>
	<path class="st0" d="M54.6,58.8l3-7.3h1.8L55.1,61h-1.1l-4.2-9.5h1.8L54.6,58.8L54.6,58.8z"/>
	<path class="st0" d="M69.4,56.1c0,0.1,0,0.4-0.1,0.8h-7.7c0.1,0.9,0.5,1.6,1.1,2.1c0.6,0.5,1.4,0.8,2.4,0.8c0.6,0,1.1-0.1,1.8-0.3
		c0.6-0.2,1.2-0.5,1.6-0.8l0.7,1.2c-0.5,0.4-1.1,0.7-1.8,1s-1.5,0.4-2.3,0.4c-1.1,0-2.1-0.2-2.9-0.7c-0.8-0.5-1.3-1.1-1.7-1.9
		c-0.3-0.7-0.5-1.5-0.5-2.4c0-1.4,0.4-2.6,1.3-3.6c0.9-0.9,2.1-1.4,3.5-1.4s2.5,0.4,3.3,1.3C69,53.4,69.4,54.6,69.4,56.1L69.4,56.1z
		 M66.8,53.5c-0.5-0.5-1.2-0.8-2-0.8c-0.8,0-1.5,0.3-2.1,0.8c-0.6,0.5-0.9,1.2-1.1,2h6C67.6,54.6,67.4,54,66.8,53.5L66.8,53.5z"/>
	<path class="st0" d="M79.3,58.8l2.6-7.3h1.8l-4,10.7c-0.4,1-0.8,1.8-1.3,2.2c-0.5,0.5-1.1,0.7-1.9,0.7c-0.6,0-1.1-0.1-1.5-0.4
		l0.2-1.4c0.4,0.2,0.8,0.3,1.2,0.3c0.8,0,1.4-0.6,1.9-1.7l0.4-0.9l-4.1-9.5h1.8L79.3,58.8L79.3,58.8z"/>
	<path class="st0" d="M84.4,56.2c0-1.4,0.5-2.6,1.4-3.5c0.9-1,2.1-1.5,3.6-1.5c1.5,0,2.6,0.5,3.6,1.5c1,1,1.4,2.2,1.4,3.5
		s-0.5,2.6-1.4,3.6c-0.9,1-2.1,1.4-3.6,1.4s-2.7-0.5-3.6-1.4C84.8,58.9,84.4,57.7,84.4,56.2z M92.8,56.2c0-1-0.3-1.8-1-2.5
		c-0.7-0.7-1.5-1.1-2.4-1.1s-1.7,0.4-2.4,1.1c-0.7,0.7-1,1.5-1,2.5c0,1,0.3,1.8,1,2.5s1.5,1,2.4,1s1.8-0.3,2.4-1
		C92.4,58.1,92.8,57.2,92.8,56.2z"/>
	<path class="st0" d="M100.4,61.3c-1.2,0-2.2-0.4-3-1.1c-0.7-0.7-1.1-1.7-1.1-3v-5.7h1.6v5.7c0,0.8,0.2,1.5,0.7,1.9
		c0.4,0.5,1,0.7,1.8,0.7c0.8,0,1.4-0.2,1.8-0.7s0.7-1.1,0.7-1.9v-5.7h1.6v5.7c0,1.2-0.4,2.2-1.1,3C102.7,60.9,101.7,61.3,100.4,61.3
		z"/>
	<path class="st0" d="M108.7,61h-1.6v-9.6h1.5v1.4c0.5-1.1,1.5-1.7,2.8-1.7c0.3,0,0.7,0,1.1,0.1l-0.1,1.6c-0.3-0.1-0.7-0.2-1-0.2
		c-0.8,0-1.4,0.3-1.9,0.8c-0.5,0.5-0.7,1.3-0.7,2.3L108.7,61L108.7,61z"/>
	<path class="st0" d="M122.8,51.2c1.4,0,2.5,0.5,3.4,1.5c0.9,1,1.4,2.2,1.4,3.6s-0.5,2.6-1.4,3.6c-0.9,1-2,1.4-3.4,1.4
		s-2.6-0.5-3.4-1.6V61h-1.6V47.5h1.6v5.4C120.3,51.8,121.4,51.2,122.8,51.2L122.8,51.2z M122.7,59.8c1,0,1.8-0.3,2.4-1
		c0.6-0.7,0.9-1.5,0.9-2.5s-0.3-1.8-0.9-2.5c-0.6-0.7-1.4-1-2.4-1c-1,0-1.8,0.3-2.4,1s-0.9,1.5-0.9,2.5s0.3,1.8,0.9,2.5
		C120.9,59.4,121.7,59.8,122.7,59.8z"/>
	<path class="st0" d="M138.5,56.1c0,0.1,0,0.4-0.1,0.8h-7.7c0.1,0.9,0.5,1.6,1.1,2.1c0.6,0.5,1.4,0.8,2.4,0.8c0.6,0,1.1-0.1,1.8-0.3
		c0.6-0.2,1.1-0.5,1.6-0.8l0.7,1.2c-0.5,0.4-1.1,0.7-1.8,1c-0.7,0.3-1.5,0.4-2.3,0.4c-1.1,0-2.1-0.2-2.9-0.7s-1.3-1.1-1.7-1.9
		c-0.3-0.7-0.5-1.5-0.5-2.4c0-1.4,0.4-2.6,1.3-3.6c0.9-0.9,2.1-1.4,3.5-1.4s2.5,0.4,3.3,1.3C138.1,53.4,138.5,54.6,138.5,56.1
		L138.5,56.1z M136,53.5c-0.5-0.5-1.2-0.8-2-0.8c-0.8,0-1.5,0.3-2.1,0.8c-0.6,0.5-0.9,1.2-1.1,2h6C136.8,54.6,136.5,54,136,53.5
		L136,53.5z"/>
	<path class="st0" d="M148.2,52.9v-5.4h1.6V61h-1.6v-1.3c-0.8,1-2,1.6-3.4,1.6s-2.6-0.5-3.5-1.4c-0.9-1-1.4-2.2-1.4-3.6
		c0-1.4,0.5-2.6,1.4-3.5c0.9-1,2-1.5,3.4-1.5S147.3,51.8,148.2,52.9L148.2,52.9z M148.3,56.2c0-1-0.3-1.8-0.9-2.5
		c-0.6-0.7-1.4-1-2.4-1c-1,0-1.8,0.3-2.4,1c-0.6,0.7-0.9,1.5-0.9,2.5c0,1,0.3,1.9,0.9,2.5c0.6,0.7,1.4,1,2.4,1c1,0,1.8-0.3,2.4-1
		C148,58.1,148.3,57.2,148.3,56.2z"/>
</g>
<g>
	<path class="st1" d="M40.7,34.7v-0.6c0-0.4,0-0.6,0-0.8v-0.3l0.5-0.1c1-0.1,1.8-1,2.4-2.6s0.8-3.7,0.8-6.2c0-1.7,0-3.1-0.1-4.1
		c-0.1-1-0.2-1.9-0.5-2.6s-0.6-1.2-1-1.6c-0.4-0.4-0.9-0.8-1.6-1.1l-0.5-0.3c0,0,0-0.1,0-0.1c0-0.1,0-0.2,0-0.4l9.8-4h1.5v7.9
		c0.3-0.6,0.6-1.3,1-2.2c0.4-0.8,0.9-1.6,1.4-2.4c0.5-0.8,1.2-1.4,1.8-2c0.7-0.6,1.4-1,2.2-1.1c1.6-0.3,2.7,0,3.5,0.7
		c0.8,0.8,1.3,1.9,1.5,3.3c0.1,0.6,0,1.1-0.1,1.6s-0.4,0.9-0.6,1.2s-0.6,0.6-0.9,0.8c-0.4,0.2-0.7,0.2-1,0.1c-0.7-0.3-1.4-0.6-2-1
		s-1.4-0.6-2.1-0.6c-0.6,0-1.3,0.2-2.1,0.7c-0.7,0.5-1.6,1.4-2.5,2.8v4.8c0,2.4,0.3,4.4,0.8,5.9c0.6,1.5,1.3,2.3,2.3,2.4l0.6,0v1.6
		H40.7L40.7,34.7z"/>
	<path class="st1" d="M147.8,30.6c-0.5,1.6-1.3,2.3-2.3,2.4l-0.7,0.1v1.6h15.1l0-1.6l-0.5,0c-1.4,0-2.5-1-3-2.3c0,0,0-0.1,0-0.1
		c-0.5-1.5-0.5-3.5-0.5-5.9v-6.6c0-2.6-0.4-4.6-1.3-6.1c-0.9-1.5-2.4-2.3-4.5-2.3c-1,0-2,0.2-3,0.5c-1,0.3-2,0.7-2.9,1.1
		c-0.9,0.5-1.8,1-2.5,1.5s-1.4,1.1-1.8,1.6c-0.3-1.5-0.9-2.7-1.8-3.5c-0.9-0.8-2.1-1.2-3.7-1.2c-2.2,0-4.1,0.4-5.7,1.3
		c-1.6,0.8-2.8,1.8-3.5,2.7V10h-1.5l-9.8,4c0,0.2,0,0.3,0,0.4v0.1l0.5,0.3c0.6,0.4,1.2,0.7,1.6,1.1s0.7,0.9,1,1.6s0.4,1.6,0.5,2.6
		c0.2,2.8,0.3,5.8-0.1,8.7c-0.2,1.1-0.4,2.2-1.1,3.1c-0.7,0.9-1.9,1.4-2.9,1.1c-1-0.3-1.6-1.2-2-2.2c-1-2.4-0.8-5.1-0.7-7.6
		c0.1-2.2,0.3-4.4-0.1-6.6c-0.4-2.2-1.5-4.3-3.3-5.5c-1.5-1-3.4-1.3-5.3-1.3c-2.5-0.1-5.1,0.3-7.4,1.4c-1.4,0.6-2.7,1.6-3.6,2.8
		s-1.3,2.9-1,4.4c2.5,0.8,5.2,0.8,7.7,0c-0.1-1.2-0.2-2.4,0.1-3.6s1-2.3,2.2-2.7c0.4-0.1,0.8-0.2,1.2,0c0.8,0.3,1.2,1.3,1.3,2.2
		c0.4,2.2,0.3,4.4,0.2,6.6c-2.1,0.1-4.2,0.3-6.3,0.8c-1.8,0.4-3.6,1.1-5,2.3c-1.4,1.2-2.1,2.9-3.2,4.2l0,0c-0.2,0.2-0.3,0.4-0.5,0.6
		c-0.7,0.6-1.4,1.1-2.3,1.4c-1.9,0.7-4,1-6,0.6c-2-0.3-3.9-1.1-5.3-2.5c-1.2-1.2-2.2-3.8-2.3-5.5l16.3-0.3c0-1.9-0.3-3.7-0.8-5.2
		c-0.5-1.6-1.3-2.9-2.2-4c-1-1.1-2.1-2-3.5-2.6c-1.4-0.6-2.9-0.9-4.6-0.9c-2.1,0-3.9,0.3-5.6,1c-1.7,0.6-3.1,1.6-4.2,2.8
		c-1.2,1.2-2.1,2.7-2.7,4.4c-0.6,1.7-0.9,3.6-0.9,5.8c0,1.7,0.3,3.3,0.9,4.7c0.6,1.4,1.4,2.6,2.5,3.6c2,1.8,4.5,2.6,7.2,2.9
		c2.4,0.2,4.7,0.2,7-0.4c2.6-0.6,4.9-1.9,6.8-3.7c0.2-0.2,0.4-0.4,0.6-0.7c0,0,0,0,0,0l0,0c0.2-0.2,0.5-0.6,0.6-0.7
		c0.1,0.5,0.2,1,0.4,1.5c0.2,0.5,0.4,1,0.7,1.4c0.6,0.9,1.4,1.6,2.3,2.1c1.7,0.9,3.7,1,5.5,0.6c1.8-0.4,3.6-1.2,5.2-2.2
		c0.3,1,1.3,1.6,2.3,2c1,0.4,2.2,0.5,3.3,0.4c0.9,0,4.6-0.4,5.8-0.5c2.1,0,14,0,14,0v-1.6l-0.5-0.1c-1-0.1-1.5-0.9-2.1-2.4
		c-0.6-1.5-0.7-3.5-0.7-5.9V16c0.7-1,1.4-1.8,2.1-2.2c0.6-0.4,1.2-0.6,1.8-0.6s1,0.2,1.5,0.5c0.5,0.3,0.8,0.8,1.1,1.4
		c0.3,0.6,0.5,1.2,0.7,1.9s0.2,1.4,0.2,2.1v5.8c0,2.4,0,4.4-0.5,5.9c-0.5,1.5-1,2.3-2,2.5l-0.3,0.1v1.6h13.8v-1.6l-0.7-0.1
		c-1-0.1-1.5-0.9-2.1-2.4c-0.6-1.5-0.6-3.5-0.6-5.9v-7.4c0-0.2,0-0.5-0.1-0.7c0.8-1.2,1.6-2,2.3-2.5c0.7-0.5,1.4-0.7,2.1-0.7
		c0.6,0,1.1,0.2,1.6,0.5c0.5,0.3,0.9,0.7,1.2,1.3c0.3,0.5,0.6,1.1,0.8,1.8c0.2,0.7,0.3,1.3,0.3,2v5.8
		C148.3,28.3,148.2,29.5,147.8,30.6L147.8,30.6z M72.5,14.4c0.9-1.6,2.1-2.5,3.6-2.5c0.9,0,1.7,0.2,2.4,0.6c0.7,0.4,1.2,1,1.6,1.6
		s0.7,1.4,0.8,2.1c0.1,0.8,0.1,1.5-0.1,2.2c-0.2,0.7-0.6,1.2-1.1,1.7c-0.5,0.5-1.2,0.7-2.1,0.7h-6.3C71.2,18.2,71.6,16.1,72.5,14.4
		L72.5,14.4z M100.2,31.3c-1,0-1.9-0.3-2.6-1c-0.8-0.7-1.2-1.6-1.2-2.9c0-0.9,0.2-1.7,0.5-2.3c0.3-0.6,0.8-1.2,1.4-1.6
		c0.6-0.4,1.2-0.7,1.9-0.9c0.7-0.2,1.4-0.3,2.2-0.3l0.1,8.3C101.8,31,101,31.3,100.2,31.3L100.2,31.3z"/>
	<path class="st1" d="M0,34.7v-1.4c0-0.1,0-0.2,0-0.3L0.6,33c1-0.1,1.7-0.9,2.3-2.4s0.8-3.5,0.8-5.9V10c0-2.4-0.3-4.4-0.8-5.9
		C2.3,2.6,1.6,1.8,0.6,1.7L0.1,1.6c0,0-0.1,0-0.1,0c0,0,0-0.1,0-0.3V0.6V0h18.3c3.3,0,6.3,0.4,8.9,1.2s4.9,2,6.8,3.5
		c1.9,1.5,3.3,3.3,4.3,5.5s1.5,4.5,1.5,7.2s-0.5,5-1.4,7.2c-0.9,2.1-2.2,4-3.9,5.5c-1.7,1.5-3.7,2.7-6.1,3.5s-5.1,1.2-8.1,1.2
		L0,34.7L0,34.7z M20.3,32.6c1.7,0,3.2-0.4,4.6-1.1c1.4-0.7,2.5-1.7,3.5-3s1.7-2.9,2.2-4.8c0.5-1.9,0.8-4,0.8-6.3s-0.3-4.4-0.9-6.3
		c-0.6-1.9-1.5-3.5-2.6-4.8c-1.1-1.3-2.5-2.3-4.1-3c-1.6-0.7-3.4-1.1-5.4-1.1h-6v30.4H20.3L20.3,32.6z"/>
	<path class="st1" d="M160.3,27.1l0.3,0c2.4,0,1.1,4,5.9,6.1c0.9,0.4,1.8,0.6,2.8,0.5c1.3-0.1,2.3-0.5,3-1.2c0.7-0.7,1.1-1.7,1-2.8
		c0-0.8-0.5-1.5-1.4-2.2c-0.9-0.7-2-1.3-3.4-1.8c-1.3-0.4-2.4-0.9-3.4-1.4c-1-0.6-1.9-1.2-2.7-1.9c-0.7-0.7-1.3-1.4-1.8-2.1
		c-0.4-0.7-0.7-1.4-0.7-2.1c-0.1-1.2,0.1-2.3,0.6-3.3c0.5-1,1.1-2,2.1-2.7c0.9-0.8,2.1-1.4,3.5-1.9c1.4-0.5,3-0.8,4.7-0.9
		c0.5,0,1.2,0,1.9,0c0.7,0.1,1.4,0.2,2.1,0.4s1.4,0.4,2.1,0.7c0.7,0.3,1.2,0.7,1.7,1.1l0.2,6l-0.5,0c-2.4,0-1.4-3.9-4.3-5.8
		c-0.7-0.4-2-0.6-2.8-0.6c-0.8,0-1.5,0.1-2.2,0.4s-1.2,0.5-1.6,0.9c-0.4,0.4-0.8,0.8-1,1.3c-0.2,0.5-0.3,1-0.3,1.4
		c0,0.9,0.7,1.7,2.2,2.3s3.3,1.3,5.7,2.1c1.8,0.6,3.2,1.5,4.3,2.8c1.1,1.3,1.6,2.7,1.7,4.1c0.2,2.6-0.7,4.7-2.7,6.3
		c-2,1.6-4.8,2.6-8.3,2.8c-1.5,0.1-3,0-4.4-0.4c-1.4-0.4-3-1.1-3.9-1.8L160.3,27.1L160.3,27.1z"/>
</g>
</svg>
